<svg width="1024" height="1024" viewBox="0 0 1024 1024" fill="none" xmlns="http://www.w3.org/2000/svg">
<path d="M1002.69 392.513L998.498 372.897L833.523 344.006L929.564 213.909L918.508 201.159L777.341 269.193L795.177 88.895L780.731 80.4241L694.855 226.662L598.723 9H581.781L604.698 218.993L362.318 24.2479L341.898 30.2222L528.186 265.805L159.087 142.485L142.054 161.211L472.004 349.979L17.0304 388.235L11.9473 416.321L484.756 468.129L90.1544 796.447L107.187 819.365L576.607 562.559L483.953 1015H512.044L692.268 588.952L802.045 922.266L821.574 906.928L776.538 568.532L947.399 763.278L958.458 745.354L827.549 503.887L1010.36 571.921L1012.05 551.501L847.969 429.876L1002.69 392.513Z"
      fill="currentColor"
/>
</svg>
