<svg width="1024" height="1024" viewBox="0 0 1024 1024" fill="none" xmlns="http://www.w3.org/2000/svg">
<g clip-path="url(#clip0_52_4)">
<path d="M511.676 1024C794.267 1024 1023.35 794.769 1023.35 512C1023.35 229.23 794.267 0 511.676 0C229.085 0 0 229.23 0 512C0 794.769 229.085 1024 511.676 1024Z" fill="black"/>
<path d="M900.536 410.051L897.223 394.53L766.784 371.671L842.72 268.734L833.979 258.646L722.363 312.477L736.465 169.82L725.043 163.118L657.144 278.825L581.136 106.605H567.741L585.86 272.757L394.219 118.67L378.074 123.397L525.365 309.796L233.532 212.222L220.065 227.038L480.944 376.397L121.213 406.666L117.194 428.888L491.027 469.88L179.029 729.654L192.496 747.787L563.65 544.595L490.392 902.579H512.602L655.098 565.478L741.895 829.205L757.336 817.069L721.728 549.322L856.822 703.41L865.565 689.228L762.06 498.173L906.601 552.003L907.941 535.847L778.205 439.614L900.536 410.051Z" fill="#5865F2"/>
</g>
<defs>
<clipPath id="clip0_52_4">
<rect width="1024" height="1024" fill="white"/>
</clipPath>
</defs>
</svg>
