<svg width="76" height="76" viewBox="0 0 76 76" fill="none" xmlns="http://www.w3.org/2000/svg">
<g clip-path="url(#clip0_134_25)">
<path d="M37.9759 76C58.9495 76 75.9519 58.9868 75.9519 38C75.9519 17.0132 58.9495 0 37.9759 0C17.0024 0 0 17.0132 0 38C0 58.9868 17.0024 76 37.9759 76Z" fill="black"/>
<path d="M66.8367 30.4335L66.5908 29.2815L56.9097 27.5849L62.5456 19.9451L61.8968 19.1964L53.6128 23.1916L54.6595 12.6039L53.8118 12.1064L48.7724 20.694L43.1312 7.91211H42.137L43.4818 20.2437L29.2585 8.80753L28.0602 9.15836L38.992 22.9927L17.3325 15.7509L16.333 16.8505L35.6951 27.9357L8.99629 30.1823L8.698 31.8315L36.4434 34.8739L13.2873 54.154L14.2869 55.4998L41.8334 40.4192L36.3963 66.9883H38.0447L48.6206 41.9691L55.0625 61.5426L56.2085 60.6419L53.5657 40.77L63.5922 52.2062L64.2411 51.1537L56.5591 36.9738L67.2868 40.969L67.3862 39.7699L57.7574 32.6276L66.8367 30.4335Z" fill="#FED42B"/>
</g>
<defs>
<clipPath id="clip0_134_25">
<rect width="76" height="76" fill="white"/>
</clipPath>
</defs>
</svg>
